# xmcd
#
# Track frame offsets: 
#        150
#        25120
#        50137
#        61460
#        76912
#        87962
#        111792
#        145837
#
# Disc length: 2172 seconds
#
# Revision: 9
# Processed by: cddbd v1.5.2PL0 Copyright (c) Steve Scherf et al.
# Submitted via: ExactAudioCopy v1.1
#
DISCID=65087a08
DTITLE=Glenn Gould - Haydn Piano Sonata Gould CD2 - No.60 , 61 , 62
DYEAR=1981
DGENRE=Classical
TTITLE0=Haydn Piano Sonata No.60 in C Hob. XVI:50 - I. Allegro
TTITLE1=Haydn Piano Sonata No.60 in C Hob. XVI:50 - II. Adagio
TTITLE2=Haydn Piano Sonata No.60 in C Hob. XVI:50 - III. Allegro molto
TTITLE3=Haydn Piano Sonata No.61 in D Hob. XVI:51 - I. Andante
TTITLE4=Haydn Piano Sonata No.61 in D Hob. XVI:51 - II. Finale. Presto
TTITLE5=Haydn Piano Sonata No.62 in Es-dur, Hob. XVI:52 - I. Allegro
TTITLE6=Haydn Piano Sonata No.62 in Es-dur, Hob. XVI:52 - II. Adagio
TTITLE7=Haydn Piano Sonata No.62 in Es-dur, Hob. XVI:52 - III. Finale.
TTITLE7=Presto
EXTD=YEAR: 1981
EXTT0=
EXTT1=
EXTT2=
EXTT3=
EXTT4=
EXTT5=
EXTT6=
EXTT7=
PLAYORDER=
